<?xml version="1.0" encoding="utf-8"?>
<!-- Generator: Adobe Illustrator 16.0.2, SVG Export Plug-In . SVG Version: 6.00 Build 0)  -->
<!DOCTYPE svg PUBLIC "-//W3C//DTD SVG 1.1//EN" "http://www.w3.org/Graphics/SVG/1.1/DTD/svg11.dtd">
<svg version="1.1" id="Layer_1" xmlns="http://www.w3.org/2000/svg" xmlns:xlink="http://www.w3.org/1999/xlink" x="0px" y="0px"
	 width="70px" height="70px" viewBox="0 0 70 70" enable-background="new 0 0 70 70" xml:space="preserve">
<path fill="#F2F2F2" d="M70,56c0,7.732-6.268,14-14,14H14C6.268,70,0,63.732,0,56V14C0,6.268,6.268,0,14,0h42
	c7.732,0,14,6.268,14,14V56z"/>
<g>
	<path fill-rule="evenodd" clip-rule="evenodd" fill="#999999" d="M59.5,35c0,13.534-10.965,24.5-24.5,24.5S10.5,48.534,10.5,35
		c0-13.536,10.965-24.5,24.5-24.5S59.5,21.464,59.5,35z"/>
	<path fill-rule="evenodd" clip-rule="evenodd" fill="#CCCCCC" d="M19.788,53.662c4.195,3.34,9.475,5.346,15.249,5.346
		c5.739,0,11.004-1.996,15.175-5.3c-1.719-3.021-5.348-2.915-10.851-6.067v-2.071c1.292-0.899,1.752-2.726,2.193-4.406
		c0.196,0,0.393-0.341,0.393-0.704l-0.049-0.098c0.147-0.243,0.294-0.536,0.411-0.995c0.146-0.488,0.736-2.071,0.195-2.412
		c-0.195-0.197-0.41-0.1-0.558,0.146c0,0,0.705-3.771,0.147-5.401c-1.146-4.211-11.055-5.354-11.055-2.775
		c-4.224,1.242-3.421,5.208-2.882,8.227c0,0-0.245-0.393-0.638-0.05c-0.459,0.538,0.05,1.681,0.196,2.267
		c0.099,0.409,0.245,0.702,0.394,0.897c0,0.098-0.05,0.098-0.05,0.195c0,0.393,0.195,0.704,0.392,0.704h0.05
		c0.51,1.876,0.803,3.654,2.195,4.649v1.828C25.13,50.835,21.472,50.498,19.788,53.662z"/>
</g>
</svg>
