<?xml version="1.0" encoding="utf-8"?>
<!-- Generator: Adobe Illustrator 16.0.2, SVG Export Plug-In . SVG Version: 6.00 Build 0)  -->
<!DOCTYPE svg PUBLIC "-//W3C//DTD SVG 1.1//EN" "http://www.w3.org/Graphics/SVG/1.1/DTD/svg11.dtd">
<svg version="1.1" id="Layer_1" xmlns="http://www.w3.org/2000/svg" xmlns:xlink="http://www.w3.org/1999/xlink" x="0px" y="0px"
	 width="30px" height="30px" viewBox="0 0 30 30" enable-background="new 0 0 30 30" xml:space="preserve">
<circle fill="#FFFFFF" cx="15" cy="15" r="15"/>
<path fill="#77BB52" d="M15,0C6.716,0,0,6.717,0,15c0,8.285,6.716,15,15,15s15-6.715,15-15C30,6.717,23.284,0,15,0z M15,27
	C8.372,27,3,21.627,3,15S8.372,3,15,3s12,5.373,12,12S21.628,27,15,27z"/>
<g>
	<polygon fill="#77BB52" points="11.473,20.87 22.633,10.823 24,12.339 12.844,22.386 	"/>
	
		<rect x="9.16" y="12.788" transform="matrix(-0.7433 0.669 -0.669 -0.7433 29.7307 24.3959)" fill="#77BB52" width="2.05" height="10.228"/>
</g>
</svg>
