<?xml version="1.0" encoding="utf-8"?>
<!-- Generator: Adobe Illustrator 16.0.2, SVG Export Plug-In . SVG Version: 6.00 Build 0)  -->
<!DOCTYPE svg PUBLIC "-//W3C//DTD SVG 1.1//EN" "http://www.w3.org/Graphics/SVG/1.1/DTD/svg11.dtd">
<svg version="1.1" id="Layer_1" xmlns="http://www.w3.org/2000/svg" xmlns:xlink="http://www.w3.org/1999/xlink" x="0px" y="0px"
	 width="30px" height="30px" viewBox="0 0 30 30" enable-background="new 0 0 30 30" xml:space="preserve">
<circle fill-rule="evenodd" clip-rule="evenodd" fill="#999999" cx="15" cy="15" r="15"/>
<path fill-rule="evenodd" clip-rule="evenodd" fill="#CCCCCC" d="M5.689,26.426c2.562,2.04,5.8,3.267,9.329,3.267
	c3.514,0,6.736-1.217,9.293-3.238c-1.051-1.854-3.27-1.785-6.639-3.713v-1.273c0.791-0.545,1.066-1.667,1.34-2.698
	c0.123,0,0.245-0.212,0.245-0.425l-0.03-0.061c0.092-0.152,0.182-0.334,0.244-0.605c0.09-0.304,0.457-1.273,0.121-1.486
	c-0.121-0.122-0.244-0.062-0.335,0.09c0,0,0.427-2.305,0.091-3.304c-0.701-2.578-6.768-3.274-6.768-1.698
	c-2.591,0.758-2.104,3.184-1.769,5.033c0,0-0.152-0.243-0.396-0.031c-0.274,0.334,0.03,1.032,0.122,1.396
	c0.061,0.242,0.152,0.424,0.245,0.545c0,0.061-0.032,0.061-0.032,0.121c0,0.243,0.122,0.425,0.244,0.425h0.031
	c0.305,1.152,0.487,2.243,1.342,2.85v1.122C8.953,24.695,6.723,24.487,5.689,26.426z"/>
</svg>
