<?xml version="1.0" encoding="utf-8"?>
<!-- Generator: Adobe Illustrator 16.0.2, SVG Export Plug-In . SVG Version: 6.00 Build 0)  -->
<!DOCTYPE svg PUBLIC "-//W3C//DTD SVG 1.1//EN" "http://www.w3.org/Graphics/SVG/1.1/DTD/svg11.dtd">
<svg version="1.1" id="Layer_1" xmlns="http://www.w3.org/2000/svg" xmlns:xlink="http://www.w3.org/1999/xlink" x="0px" y="0px"
	 width="78px" height="69.782px" viewBox="0 0 78 69.782" enable-background="new 0 0 78 69.782" xml:space="preserve">
<path fill="#FF2D55" d="M76.404,41.215c-0.537-2.891-1.979-5.414-3.883-7.246c-2.225-2.193-5.182-3.494-8.164-3.432l-0.219,0.002
	c-2.053,0.014-4.049,0.551-5.941,1.773c-0.754,0.445-1.443,1.047-2.123,1.668V10.134c0-2.058-1.619-3.727-3.734-3.727H42.058v1.89
	H52.41c0.996,0,1.83,0.779,1.83,1.83v24.385c-0.914-0.84-1.752-1.59-2.67-2.063c-1.896-1.15-3.898-1.67-6.01-1.604l-0.162,0.002
	c-3.053,0.016-5.938,1.451-8.084,3.664c-1.885,1.906-3.194,4.494-3.644,7.393c-0.464,2.895-0.076,6.154,1.368,9.518
	c2.659,5.93,8.68,12.109,19.719,18.051l0.846,0.309l0.619-0.32c10.818-6.311,16.686-12.711,19.182-18.717
	C76.699,47.317,76.945,44.11,76.404,41.215z M72.289,49.604C70.15,54.77,65.13,60.475,55.535,66.049
	c-9.988-5.268-15.17-10.816-17.516-15.852c-1.219-2.895-1.602-5.625-1.086-7.84c0.305-2.209,1.293-4.107,2.602-5.645
	c1.68-1.529,3.666-2.59,5.938-2.654l0.152-0.002c1.365-0.008,2.9,0.297,4.27,1.137c1.434,0.834,2.59,1.982,3.656,3.82l1.596,2.199
	l1.137-2.211c1.148-1.9,2.359-3.121,3.664-3.969c1.371-0.904,2.896-1.273,4.26-1.279h0.162c2.047-0.012,4.264,0.979,6.004,2.438
	c1.379,1.521,2.441,3.354,2.764,5.564C73.73,44.02,73.429,46.7,72.289,49.604z"/>
<rect x="6.781" y="20.119" fill="#FF2D55" width="42.572" height="2.813"/>
<rect x="6.781" y="34.438" fill="#FF2D55" width="22.251" height="2.813"/>
<rect x="6.781" y="48.758" fill="#FF2D55" width="12.254" height="2.811"/>
<path fill="#FF2D55" d="M17.76,12.034h20.564c1.059,0,1.895-0.835,1.895-1.892V6.407h-3.346C35.649,2.676,32.209,0,28.042,0
	c-4.121,0-7.616,2.676-8.838,6.407h-3.291v3.735C15.913,11.199,16.754,12.034,17.76,12.034z M28.042,2.816
	c2.574,0,4.777,1.454,5.849,3.591H22.236C23.311,4.271,25.51,2.816,28.042,2.816z"/>
<path fill="#FF2D55" d="M3.728,60.34c-0.997,0-1.831-0.781-1.831-1.828V10.127c0-1.051,0.834-1.83,1.831-1.83h10.297v-1.89H3.738
	C1.68,6.407,0,8.076,0,10.134v48.373c0,2.055,1.68,3.723,3.738,3.723H43.64c-0.758-0.611-1.443-1.279-2.127-1.889H3.728z"/>
<g>
	<path fill="#FF2D55" d="M75.031,48.516c-1.211,0-2.211,0.383-2.674,0.928h-7.295l-5.104,7.695L47.998,39.079l-6.801,10.365h-4.416
		v1.449h6.172l5.045-7.699l11.961,18.064l6.854-10.365h5.545c0.463,0.594,1.463,0.979,2.674,0.979c1.607,0,2.969-0.758,2.969-1.676
		C78,49.221,76.638,48.516,75.031,48.516L75.031,48.516z M75.031,48.516"/>
</g>
</svg>
