<?xml version="1.0" encoding="utf-8"?>
<!-- Generator: Adobe Illustrator 16.0.2, SVG Export Plug-In . SVG Version: 6.00 Build 0)  -->
<!DOCTYPE svg PUBLIC "-//W3C//DTD SVG 1.1//EN" "http://www.w3.org/Graphics/SVG/1.1/DTD/svg11.dtd">
<svg version="1.1" id="Layer_1" xmlns="http://www.w3.org/2000/svg" xmlns:xlink="http://www.w3.org/1999/xlink" x="0px" y="0px"
	 width="70px" height="70px" viewBox="0 0 70 70" enable-background="new 0 0 70 70" xml:space="preserve">
<g>
	<g>
		<path style="fill:#F47721;" d="M70,55.482C70,63.504,63.497,70,55.483,70H14.518C6.507,70,0,63.504,0,55.482v-40.96
			C0,6.503,6.507,0,14.518,0h40.966C63.497,0,70,6.503,70,14.522V55.482z"/>
		<g>
			<defs>
				<path id="SVGID_1_" d="M70,55.482C70,63.504,63.497,70,55.483,70H14.518C6.507,70,0,63.504,0,55.482v-40.96
					C0,6.503,6.507,0,14.518,0h40.966C63.497,0,70,6.503,70,14.522V55.482z"/>
			</defs>
			<clipPath id="SVGID_2_">
				<use xlink:href="#SVGID_1_"  style="overflow:visible;"/>
			</clipPath>
		</g>
	</g>
	<g>
		<path style="fill:#FFFFFF;" d="M19.461,13.982H9.682L9.657,60.087l50.687-0.078V13.982h-9.472v2.407l0.358,0.486l0.409,0.486
			l0.358,0.461l0.205,0.435l0.154,0.717l0.024,0.486v0.691l-0.051,0.436l-0.257,0.588l-0.229,0.41l-0.308,0.41l-0.307,0.46
			l-0.742,0.486l-0.256,0.23l-0.846,0.282l-0.896,0.255h-0.922l-1.177-0.383l-0.896-0.513l-0.871-0.87l-0.614-1.279l-0.153-1.536
			c0,0,0.179-0.922,0.257-0.999c0.075-0.076,0.64-1.075,0.64-1.075l0.563-0.461l0.025-2.611H25.017l0.025,2.433l0.486,0.665
			l0.538,0.589l0.307,0.794l0.18,0.742l-0.052,1.075l-0.205,0.742l-0.333,0.641l-0.358,0.614l-0.588,0.461l-0.691,0.537
			l-0.691,0.256l-0.819,0.205h-0.999l-0.716-0.18c0,0-0.999-0.332-1.024-0.409s-1.153-1.075-1.153-1.075l-0.742-1.382l-0.179-1.767
			l0.512-1.383l0.614-0.665l0.308-0.333L19.461,13.982z"/>
		<polygon style="fill:#FFFFFF;" points="20.102,11.781 20.382,10.886 21.022,10.245 21.714,9.912 22.764,9.912 23.455,10.296 
			24.146,10.847 24.402,11.781 24.402,20.46 24.069,21.279 23.404,21.894 22.738,22.226 21.662,22.226 21.228,21.894 20.741,21.458 
			20.102,20.639 		"/>
		<polygon style="fill:#FFFFFF;" points="45.982,11.833 46.264,10.938 46.903,10.296 47.595,9.964 48.645,9.964 49.336,10.348 
			50.026,10.897 50.283,11.833 50.283,20.511 49.949,21.33 49.284,21.944 48.618,22.277 47.544,22.277 47.108,21.944 46.622,21.509 
			45.982,20.69 		"/>
		<rect x="14.29" y="26.552" style="fill:#F47721;" width="41.42" height="28.85"/>
	</g>
	<g>
		<rect x="21.021" y="33.708" style="fill:#F5F6F7;" width="4.945" height="4.758"/>
		<rect x="20.886" y="33.841" style="fill:#E4E6E7;" width="4.946" height="4.757"/>
	</g>
	<g>
		<rect x="32.712" y="33.774" style="fill:#F5F6F7;" width="4.947" height="4.758"/>
		<rect x="32.58" y="33.909" style="fill:#E4E6E7;" width="4.947" height="4.756"/>
	</g>
	<g>
		<rect x="44.845" y="33.832" style="fill:#F5F6F7;" width="4.947" height="4.759"/>
		<rect x="44.712" y="33.965" style="fill:#E4E6E7;" width="4.945" height="4.758"/>
	</g>
	<g>
		<rect x="21.021" y="44.017" style="fill:#F5F6F7;" width="4.945" height="4.758"/>
		<rect x="20.886" y="44.149" style="fill:#E4E6E7;" width="4.946" height="4.758"/>
	</g>
	<g>
		<rect x="32.712" y="44.083" style="fill:#F5F6F7;" width="4.947" height="4.758"/>
		<rect x="32.58" y="44.218" style="fill:#E4E6E7;" width="4.947" height="4.756"/>
	</g>
</g>
</svg>
