<?xml version="1.0" encoding="utf-8"?>
<!-- Generator: Adobe Illustrator 16.0.2, SVG Export Plug-In . SVG Version: 6.00 Build 0)  -->
<!DOCTYPE svg PUBLIC "-//W3C//DTD SVG 1.1//EN" "http://www.w3.org/Graphics/SVG/1.1/DTD/svg11.dtd">
<svg version="1.1" id="Layer_1" xmlns="http://www.w3.org/2000/svg" xmlns:xlink="http://www.w3.org/1999/xlink" x="0px" y="0px"
	 width="192px" height="192px" viewBox="0 0 192 192" enable-background="new 0 0 192 192" xml:space="preserve">
<path fill="#FD9509" d="M192,153.576C192,174.771,174.771,192,153.576,192H38.424C17.229,192,0,174.771,0,153.576V38.424
	C0,17.229,17.229,0,38.424,0h115.152C174.771,0,192,17.229,192,38.424V153.576z"/>
<g>
	<path fill="#FFFFFF" d="M132.313,92.284H59.688c-2.869,0-5.188,2.417-5.188,5.4v43.201c0,2.982,2.318,5.398,5.188,5.398h23.344
		V117.01h25.937v29.273h23.344c2.869,0,5.188-2.416,5.188-5.398V97.684C137.5,94.701,135.182,92.284,132.313,92.284z"/>
	<g>
		<path fill="#FFFFFF" d="M43,111.414c-7.7,0-9.803-4.699-4.673-10.441l48.346-54.119c5.13-5.743,13.524-5.743,18.655,0
			l48.346,54.119c5.129,5.742,3.027,10.441-4.674,10.441H43z"/>
	</g>
</g>
</svg>
