<?xml version="1.0" encoding="utf-8"?>
<!-- Generator: Adobe Illustrator 16.0.2, SVG Export Plug-In . SVG Version: 6.00 Build 0)  -->
<!DOCTYPE svg PUBLIC "-//W3C//DTD SVG 1.1//EN" "http://www.w3.org/Graphics/SVG/1.1/DTD/svg11.dtd">
<svg version="1.1" id="Layer_1" xmlns="http://www.w3.org/2000/svg" xmlns:xlink="http://www.w3.org/1999/xlink" x="0px" y="0px"
	 width="70px" height="70px" viewBox="0 0 70 70" enable-background="new 0 0 70 70" xml:space="preserve">
<g>
	<path style="fill:#68C7F1;" d="M70.404,55.485c0,8.021-6.503,14.518-14.517,14.518H14.922c-8.011,0-14.518-6.497-14.518-14.518
		v-40.96c0-8.02,6.507-14.522,14.518-14.522h40.965c8.014,0,14.517,6.503,14.517,14.522V55.485z"/>
	<g>
		<defs>
			<path id="SVGID_1_" d="M70.404,55.485c0,8.021-6.503,14.518-14.517,14.518H14.922c-8.011,0-14.518-6.497-14.518-14.518v-40.96
				c0-8.02,6.507-14.522,14.518-14.522h40.965c8.014,0,14.517,6.503,14.517,14.522V55.485z"/>
		</defs>
		<clipPath id="SVGID_2_">
			<use xlink:href="#SVGID_1_"  style="overflow:visible;"/>
		</clipPath>
	</g>
	<g>
		<g>
			<g>
				<path style="fill:#FFFFFF;" d="M58.467,39.148V21.275c0-4.477-3.796-8.106-8.479-8.106H37.026h-3.244H20.821
					c-4.683,0-8.479,3.629-8.479,8.106v17.873c-0.015,0.197-0.025,0.396-0.025,0.598s0.01,0.4,0.025,0.598
					c0.32,4.197,3.981,7.509,8.454,7.509h4.173v12.006l13.354-12.006h11.69c4.473,0,8.133-3.312,8.453-7.509
					c0.016-0.197,0.025-0.396,0.025-0.598S58.482,39.346,58.467,39.148z"/>
			</g>
			<g>
				<path style="fill:#FFFFFF;" d="M24.182,61.624V48.64h-3.386c-2.35,0-4.59-0.845-6.308-2.38c-1.719-1.535-2.759-3.615-2.93-5.856
					c-0.019-0.249-0.028-0.457-0.028-0.657c0-0.191,0.008-0.392,0.025-0.627V21.275c0-4.904,4.157-8.894,9.266-8.894h29.167
					c5.109,0,9.266,3.99,9.266,8.894v17.844c0.018,0.235,0.026,0.436,0.026,0.627c0,0.2-0.01,0.408-0.028,0.657
					c-0.171,2.241-1.212,4.321-2.93,5.856c-1.719,1.535-3.959,2.38-6.309,2.38H38.625L24.182,61.624z M20.821,13.956
					c-4.241,0-7.691,3.284-7.691,7.319v17.903l-0.002,0.03c-0.016,0.207-0.023,0.378-0.023,0.537s0.007,0.33,0.023,0.537
					c0.29,3.804,3.659,6.782,7.669,6.782h4.959v11.027l12.266-11.027h11.992c4.01,0,7.379-2.979,7.669-6.782
					c0.016-0.207,0.023-0.378,0.023-0.537s-0.008-0.33-0.023-0.537l-0.002-0.061V21.275c0-4.036-3.451-7.319-7.692-7.319H20.821z"/>
			</g>
		</g>
		<g>
			<g>
				<path style="fill:#68C7F1;" d="M24.316,32.492c-0.987,0-1.791-0.803-1.791-1.791c0-0.987,0.803-1.791,1.791-1.791
					c0.988,0,1.791,0.803,1.791,1.791C26.107,31.689,25.304,32.492,24.316,32.492z M24.316,30.245c-0.251,0-0.457,0.205-0.457,0.457
					c0,0.252,0.205,0.457,0.457,0.457c0.252,0,0.457-0.205,0.457-0.457C24.773,30.45,24.568,30.245,24.316,30.245z"/>
			</g>
			<g>
				<path style="fill:#68C7F1;" d="M35.405,32.492c-0.987,0-1.791-0.803-1.791-1.791c0-0.987,0.803-1.791,1.791-1.791
					c0.988,0,1.791,0.803,1.791,1.791C37.195,31.689,36.393,32.492,35.405,32.492z M35.405,30.245c-0.252,0-0.457,0.205-0.457,0.457
					c0,0.252,0.205,0.457,0.457,0.457c0.251,0,0.457-0.205,0.457-0.457C35.861,30.45,35.656,30.245,35.405,30.245z"/>
			</g>
			<g>
				<path style="fill:#68C7F1;" d="M46.493,32.492c-0.987,0-1.791-0.803-1.791-1.791c0-0.987,0.804-1.791,1.791-1.791
					s1.79,0.803,1.79,1.791C48.283,31.689,47.48,32.492,46.493,32.492z M46.493,30.245c-0.252,0-0.457,0.205-0.457,0.457
					c0,0.252,0.205,0.457,0.457,0.457c0.251,0,0.456-0.205,0.456-0.457C46.949,30.45,46.744,30.245,46.493,30.245z"/>
			</g>
		</g>
	</g>
</g>
</svg>
