<?xml version="1.0" encoding="utf-8"?>
<!-- Generator: Adobe Illustrator 16.0.2, SVG Export Plug-In . SVG Version: 6.00 Build 0)  -->
<!DOCTYPE svg PUBLIC "-//W3C//DTD SVG 1.1//EN" "http://www.w3.org/Graphics/SVG/1.1/DTD/svg11.dtd">
<svg version="1.1" id="Layer_1" xmlns="http://www.w3.org/2000/svg" xmlns:xlink="http://www.w3.org/1999/xlink" x="0px" y="0px"
	 width="70px" height="70px" viewBox="0 0 70 70" enable-background="new 0 0 70 70" xml:space="preserve">
<path fill="#FF2D55" d="M70,56c0,7.732-6.268,14-14,14H14C6.268,70,0,63.732,0,56V14C0,6.268,6.268,0,14,0h42
	c7.732,0,14,6.268,14,14V56z"/>
<path fill="#FFFFFF" d="M52.06,51.546l-3.869-3.86V33.106h-0.04c-0.345-5.854-4.478-10.679-9.983-12.067v-2.086
	c0-2.735-1.387-4.953-3.096-4.953c-1.708,0-3.095,2.218-3.095,4.953v2.014c-5.653,1.29-9.928,6.179-10.277,12.14h-0.041v14.727
	l-3.721,3.713c-0.343,0.341-0.228,0.621,0.257,0.621h12.478C30.965,54.33,32.795,56,35.035,56c2.24,0,4.072-1.67,4.363-3.833h12.405
	C52.289,52.167,52.404,51.887,52.06,51.546z"/>
</svg>
