<?xml version="1.0" encoding="utf-8"?>
<!-- Generator: Adobe Illustrator 16.0.2, SVG Export Plug-In . SVG Version: 6.00 Build 0)  -->
<!DOCTYPE svg PUBLIC "-//W3C//DTD SVG 1.1//EN" "http://www.w3.org/Graphics/SVG/1.1/DTD/svg11.dtd">
<svg version="1.1" id="Layer_1" xmlns="http://www.w3.org/2000/svg" xmlns:xlink="http://www.w3.org/1999/xlink" x="0px" y="0px"
	 width="70px" height="70px" viewBox="0 0 70 70" enable-background="new 0 0 70 70" xml:space="preserve">
<path fill="#FD9509" d="M70,56c0,7.732-6.268,14-14,14H14C6.268,70,0,63.732,0,56V14C0,6.268,6.268,0,14,0h42
	c7.732,0,14,6.268,14,14V56z"/>
<g>
	<defs>
		<rect id="SVGID_1_" x="12.5" y="9.134" width="45" height="51.732"/>
	</defs>
	<clipPath id="SVGID_2_">
		<use xlink:href="#SVGID_1_"  overflow="visible"/>
	</clipPath>
	<path clip-path="url(#SVGID_2_)" fill="#FFFFFF" d="M54.781,35.96L37.723,18.892c-1.44-1.436-3.756-2.241-5.757-2.021l-6.396,0.716
		l0.945-6.49c0.136-0.932-0.521-1.81-1.473-1.946c-0.937-0.133-1.813,0.514-1.947,1.454l-1.081,7.378l-3.076,0.338
		c-2.396,0.266-4.684,2.551-4.949,4.963L12.54,36.305c-0.22,1.993,0.579,4.315,2.02,5.757l17.059,17.058
		c2.021,2.021,5.31,2.021,7.327,0l15.836-15.831C56.799,41.267,56.799,37.977,54.781,35.96L54.781,35.96z M22.229,28.517
		c0.556,0.087,1.103-0.116,1.471-0.484c0.247-0.25,0.423-0.595,0.487-0.967l0.415-2.943c0.114,0.087,0.224,0.15,0.312,0.26
		c1.347,1.339,1.347,3.52,0,4.877c-1.34,1.339-3.516,1.339-4.882,0c-1.336-1.357-1.336-3.538,0-4.877
		c0.352-0.349,0.751-0.6,1.171-0.771l-0.42,2.949C20.634,27.505,21.289,28.384,22.229,28.517L22.229,28.517z M36.792,46.029
		L35.04,47.78l-3.594-16.892l1.758-1.759L36.792,46.029z M36.188,37.754c-0.012-0.995,0.352-1.877,1.143-2.668
		c0.753-0.751,1.58-1.12,2.457-1.101c0.873,0.035,1.716,0.459,2.541,1.27c0.839,0.838,1.278,1.755,1.316,2.722
		c0.012,0.968-0.374,1.849-1.141,2.636c-0.739,0.717-1.566,1.071-2.459,1.062c-0.913-0.008-1.754-0.403-2.541-1.19
		C36.662,39.642,36.223,38.721,36.188,37.754L36.188,37.754z M32.06,39.167c0.036,0.968-0.355,1.845-1.143,2.633
		c-0.729,0.718-1.544,1.093-2.447,1.062c-0.919-0.009-1.758-0.404-2.547-1.191c-0.833-0.842-1.288-1.763-1.32-2.729
		c-0.016-0.995,0.354-1.876,1.145-2.667c0.771-0.753,1.58-1.109,2.459-1.097c0.879,0.035,1.738,0.466,2.549,1.272
		C31.594,37.287,32.033,38.2,32.06,39.167L32.06,39.167z M53.579,42.062L37.723,57.895c-1.354,1.354-3.54,1.354-4.878,0
		L15.773,40.836c-1.038-1.054-1.688-2.863-1.52-4.348l1.45-13.026c0.09-0.814,0.507-1.614,1.148-2.272
		c0.657-0.658,1.47-1.067,2.277-1.155l2.641-0.294l-0.258,1.763l-2.197,0.244c-0.933,0.105-1.802,0.967-1.897,1.905L15.97,36.696
		c-0.108,0.932,0.352,2.248,1.034,2.914l17.051,17.058c0.68,0.688,1.776,0.688,2.443,0l15.854-15.832
		c0.665-0.666,0.665-1.763,0-2.452L35.285,21.326c-0.679-0.665-1.995-1.14-2.928-1.028l-7.293,0.81l0.241-1.759l6.855-0.764
		c1.475-0.16,3.3,0.482,4.337,1.52l17.085,17.077C54.909,38.514,54.909,40.707,53.579,42.062L53.579,42.062z M53.579,42.062"/>
</g>
</svg>
