<?xml version="1.0" encoding="utf-8"?>
<!-- Generator: Adobe Illustrator 16.0.2, SVG Export Plug-In . SVG Version: 6.00 Build 0)  -->
<!DOCTYPE svg PUBLIC "-//W3C//DTD SVG 1.1//EN" "http://www.w3.org/Graphics/SVG/1.1/DTD/svg11.dtd">
<svg version="1.1" id="Layer_1" xmlns="http://www.w3.org/2000/svg" xmlns:xlink="http://www.w3.org/1999/xlink" x="0px" y="0px"
	 width="116.019px" height="116.018px" viewBox="0 0 116.019 116.018" enable-background="new 0 0 116.019 116.018"
	 xml:space="preserve">
<g>
	<circle fill="#DA5350" cx="58.01" cy="58.008" r="58.01"/>
</g>
<g>
	<path fill="#FFFFFF" d="M93.939,58.756c-0.922-1.049-1.912-1.624-2.961-1.624c-1.059,0-2.094,0.603-3.025,1.673
		c0.01,0.445,0.068,0.872,0.068,1.322c0,16.563-13.43,29.994-30.012,29.994c-16.581,0-30.011-13.431-30.011-29.994
		s13.431-29.995,30.011-29.995c3.51,0,6.873,0.61,9.98,1.729l2.332-5.52c-3.82-1.409-7.965-2.214-12.313-2.214
		c-19.89,0-36,16.109-36,36c0,19.873,16.109,35.982,36,35.982c19.891,0,36-16.109,36-35.982
		C94.009,59.667,93.951,59.213,93.939,58.756z"/>
	<g>
		<path fill="#FFFFFF" d="M87.183,37.294c0.631,0.901,0.25,1.717-0.846,1.813L62.33,41.213c-1.096,0.096-1.611-0.641-1.146-1.638
			L71.378,17.72c0.465-0.997,1.361-1.075,1.992-0.174L87.183,37.294z"/>
	</g>
</g>
</svg>
