<?xml version="1.0" encoding="utf-8"?>
<!-- Generator: Adobe Illustrator 16.0.2, SVG Export Plug-In . SVG Version: 6.00 Build 0)  -->
<!DOCTYPE svg PUBLIC "-//W3C//DTD SVG 1.1//EN" "http://www.w3.org/Graphics/SVG/1.1/DTD/svg11.dtd">
<svg version="1.1" id="Layer_1" xmlns="http://www.w3.org/2000/svg" xmlns:xlink="http://www.w3.org/1999/xlink" x="0px" y="0px"
	 width="72px" height="79.191px" viewBox="0 0 72 79.191" enable-background="new 0 0 72 79.191" xml:space="preserve">
<g>
	<path fill="#DA5350" d="M71.929,41.838c-0.922-1.049-1.912-1.623-2.961-1.623c-1.059,0-2.094,0.602-3.025,1.672
		c0.01,0.445,0.068,0.873,0.068,1.322c0,16.564-13.43,29.994-30.012,29.994c-16.581,0-30.011-13.43-30.011-29.994
		c0-16.563,13.431-29.995,30.011-29.995c3.51,0,6.873,0.61,9.98,1.729l2.332-5.52C44.492,8.014,40.347,7.209,36,7.209
		c-19.89,0-36,16.109-36,36c0,19.873,16.109,35.982,36,35.982c19.891,0,36-16.109,36-35.982C72,42.75,71.941,42.295,71.929,41.838z"
		/>
	<g>
		<path fill="#DA5350" d="M65.173,20.376c0.631,0.901,0.25,1.718-0.846,1.813L40.32,24.295c-1.096,0.096-1.611-0.641-1.146-1.638
			L49.369,0.802c0.465-0.997,1.361-1.075,1.992-0.174L65.173,20.376z"/>
	</g>
</g>
</svg>
