<?xml version="1.0" encoding="utf-8"?>
<!-- Generator: Adobe Illustrator 16.0.2, SVG Export Plug-In . SVG Version: 6.00 Build 0)  -->
<!DOCTYPE svg PUBLIC "-//W3C//DTD SVG 1.1//EN" "http://www.w3.org/Graphics/SVG/1.1/DTD/svg11.dtd">
<svg version="1.1" id="Layer_1" xmlns="http://www.w3.org/2000/svg" xmlns:xlink="http://www.w3.org/1999/xlink" x="0px" y="0px"
	 width="116.019px" height="116.019px" viewBox="0 0 116.019 116.019" enable-background="new 0 0 116.019 116.019"
	 xml:space="preserve">
<g>
	<circle fill="#FD9509" cx="58.01" cy="58.009" r="58.01"/>
</g>
<g>
	<path fill="#FFFFFF" d="M54.419,31.584c-12.368,0-22.409,10.02-22.409,22.394c0,12.355,10.041,22.395,22.409,22.395
		c12.331,0,22.372-10.039,22.372-22.395C76.791,41.604,66.75,31.584,54.419,31.584z M54.419,69.97
		c-8.836,0-16.006-7.156-16.006-15.992c0-8.836,7.17-16.026,16.006-16.026c8.786,0,15.967,7.189,15.967,16.026
		C70.386,62.814,63.205,69.97,54.419,69.97z"/>
	<polygon fill="#FFFFFF" points="70.314,65.607 84.009,79.279 79.48,83.802 65.794,70.126 	"/>
</g>
</svg>
