<?xml version="1.0" encoding="utf-8"?>
<!-- Generator: Adobe Illustrator 16.0.2, SVG Export Plug-In . SVG Version: 6.00 Build 0)  -->
<!DOCTYPE svg PUBLIC "-//W3C//DTD SVG 1.1//EN" "http://www.w3.org/Graphics/SVG/1.1/DTD/svg11.dtd">
<svg version="1.1" id="Layer_1" xmlns="http://www.w3.org/2000/svg" xmlns:xlink="http://www.w3.org/1999/xlink" x="0px" y="0px"
	 width="62.534px" height="62.805px" viewBox="0 0 62.534 62.805" enable-background="new 0 0 62.534 62.805" xml:space="preserve">
<g>
	<path fill="#DA5350" d="M26.952,0C12.077,0,0,12.054,0,26.928c0,14.875,12.077,26.928,26.952,26.928
		c14.825,0,26.903-12.053,26.903-26.928C53.855,12.054,41.777,0,26.952,0z M26.952,46.154C16.328,46.154,7.7,37.552,7.7,26.928
		c0-10.625,8.628-19.251,19.252-19.251c10.574,0,19.202,8.627,19.202,19.251C46.154,37.552,37.526,46.154,26.952,46.154z"/>
	
		<rect x="39.955" y="48.008" transform="matrix(-0.7071 -0.7071 0.7071 -0.7071 51.3935 125.0036)" fill="#DA5350" width="23.265" height="7.699"/>
</g>
</svg>
