<?xml version="1.0" encoding="utf-8"?>
<!-- Generator: Adobe Illustrator 16.0.2, SVG Export Plug-In . SVG Version: 6.00 Build 0)  -->
<!DOCTYPE svg PUBLIC "-//W3C//DTD SVG 1.1//EN" "http://www.w3.org/Graphics/SVG/1.1/DTD/svg11.dtd">
<svg version="1.1" id="Layer_1" xmlns="http://www.w3.org/2000/svg" xmlns:xlink="http://www.w3.org/1999/xlink" x="0px" y="0px"
	 width="40px" height="47.75px" viewBox="0 0 40 47.75" enable-background="new 0 0 40 47.75" xml:space="preserve">
<g>
	<g>
		<g>
			<path fill="#5FC8FA" d="M20,7.75c-11.046,0-20,8.955-20,20c0,11.047,8.954,20,20,20c11.045,0,20-8.953,20-20
				C40,16.705,31.045,7.75,20,7.75z M20,45.084c-9.574,0-17.333-7.76-17.333-17.334c0-9.572,7.76-17.334,17.333-17.334
				c9.572,0,17.332,7.762,17.332,17.334C37.333,37.324,29.573,45.084,20,45.084z"/>
		</g>
	</g>
	<path fill="#5FC8FA" d="M21,25.417v-9.106h1.5L20,12.223l-2.5,4.088H19v9.106c-1.443,0.433-2.5,1.754-2.5,3.337
		c0,1.934,1.567,3.5,3.5,3.5s3.5-1.566,3.5-3.5C23.5,27.171,22.442,25.85,21,25.417z"/>
	<path fill="#5FC8FA" d="M23.125,0h-6.25C15.84,0,15,0.672,15,1.5C15,2.329,15.84,3,16.875,3H18.5v5.625h3V3h1.625
		C24.161,3,25,2.329,25,1.5C25,0.672,24.161,0,23.125,0z"/>
	<path fill="#5FC8FA" d="M39.432,11.592l-3.535-3.535c-0.586-0.586-1.377-0.744-1.768-0.354s-0.232,1.184,0.354,1.77l1.061,1.061
		l-4.066,4.064l1.414,1.414l4.066-4.064l1.061,1.061c0.586,0.586,1.377,0.744,1.768,0.354S40.018,12.178,39.432,11.592z"/>
</g>
</svg>
